<?xml version="1.0" encoding="utf-8" ?>
<svg baseProfile="full" height="100%" version="1.1" viewBox="-500 -300 1305 907" width="100%" xmlns="http://www.w3.org/2000/svg" xmlns:ev="http://www.w3.org/2001/xml-events" xmlns:xlink="http://www.w3.org/1999/xlink"><defs><marker id="id11" markerHeight="20" markerWidth="30" orient="auto" refX="0" refY="3"><path d=" M0,3 L8,8 L5,3 L8,0 L0,3" fill="black" /></marker><marker id="id12" markerHeight="30" markerWidth="30" orient="auto" refX="8" refY="3"><path d=" M0,0 L3,3 L0,8 L8,3 L0,0" fill="black" /></marker><marker id="id13" markerHeight="20" markerWidth="30" orient="auto" refX="0" refY="3"><path d=" M0,3 L8,8 L5,3 L8,0 L0,3" fill="black" /></marker></defs><polyline fill="none" points="0.0,0.0 305.3,0.0 305.3,15.4 0.0,15.4 0.0,0.0" stroke="blue" stroke-width="1" /><polyline fill="none" points="0.0,292.5 305.3,292.5 305.3,307.9 0.0,307.9 0.0,292.5" stroke="blue" stroke-width="1" /><line stroke="blue" stroke-linecap="square" stroke-width="1" x1="147.70000000000002" x2="147.70000000000002" y1="15.4" y2="292.49999999999994" /><line stroke="blue" stroke-linecap="square" stroke-width="1" x1="157.60000000000002" x2="157.60000000000002" y1="292.49999999999994" y2="15.4" /><line stroke="blue" stroke-linecap="square" stroke-width="1" x1="27.650000000000006" x2="27.650000000000006" y1="0.0" y2="-12.0" /><line stroke="blue" stroke-linecap="square" stroke-width="1" x1="27.650000000000006" x2="277.65" y1="-12.0" y2="-12.0" /><line stroke="blue" stroke-linecap="square" stroke-width="1" x1="277.65" x2="277.65" y1="-12.0" y2="0.0" /><line stroke="blue" stroke-linecap="square" stroke-width="1" x1="27.650000000000006" x2="27.650000000000006" y1="307.9" y2="319.9" /><line stroke="blue" stroke-linecap="square" stroke-width="1" x1="277.65" x2="27.650000000000006" y1="319.9" y2="319.9" /><line stroke="blue" stroke-linecap="square" stroke-width="1" x1="277.65" x2="277.65" y1="319.9" y2="307.9" /><polyline fill="red" points="27.650000000000006,0.0 15.650000000000006,0.0 27.650000000000006,-12.0 27.650000000000006,0.0" stroke="black" stroke-width="2.5" /><polyline fill="red" points="277.65,0.0 289.65,0.0 277.65,-12.0 277.65,0.0" stroke="black" stroke-width="2.5" /><polyline fill="red" points="27.650000000000006,307.9 15.650000000000006,307.9 27.650000000000006,319.9 27.650000000000006,307.9" stroke="black" stroke-width="2.5" /><polyline fill="red" points="277.65,307.9 289.65,307.9 277.65,319.9 277.65,307.9" stroke="black" stroke-width="2.5" /><polyline fill="none" marker-start="url(#id11)" points="0.0,0.0 -57.735026918962596,-100.0 -295.7350269189626,-100.0" stroke="black" stroke-width="2.5" /><text fill="black" font-family="sans-serif" font-size="28" x="-283.8350269189626" y="-118.0">UC 305 x 305 x 97</text><text fill="black" font-family="sans-serif" font-size="28" x="-307.6350269189626" y="-67.0"> </text><line stroke="#D8D8D8" stroke-linecap="square" stroke-opacity="0.7" stroke-width="2.5" x1="27.650000000000006" x2="27.650000000000006" y1="-12.0" y2="-112.0" /><line stroke="#D8D8D8" stroke-linecap="square" stroke-opacity="0.7" stroke-width="2.5" x1="277.65" x2="277.65" y1="-12.0" y2="-112.0" /><line marker-end="url(#id12)" marker-start="url(#id13)" stroke="black" stroke-linecap="square" stroke-width="2.5" x1="27.649999999999977" x2="277.65" y1="-112.0" y2="-112.0" /><text fill="black" font-family="sans-serif" font-size="28" x="112.64999999999998" y="-192.0">250.0</text><line stroke="black" stroke-linecap="square" stroke-opacity="1.0" stroke-width="2.5" x1="27.649999999999977" x2="27.649999999999977" y1="-117.0" y2="-107.0" /><line stroke="black" stroke-linecap="square" stroke-opacity="1.0" stroke-width="2.5" x1="277.65" x2="277.65" y1="-117.0" y2="-107.0" /><text fill="black" font-family="sans-serif" font-size="28" x="-28.0" y="407.9">Side view (Sec B-B) </text><text fill="black" font-family="sans-serif" font-size="28" x="-28.0" y="447.9">(All dimensions are in "mm")</text></svg>