<?xml version="1.0" encoding="utf-8" ?>
<svg baseProfile="full" height="100%" version="1.1" viewBox="-600 -400 1750 1107" width="100%" xmlns="http://www.w3.org/2000/svg" xmlns:ev="http://www.w3.org/2001/xml-events" xmlns:xlink="http://www.w3.org/1999/xlink"><defs><pattern height="8" id="diagonalHatch" patternTransform="rotate(45 2 2)" patternUnits="userSpaceOnUse" width="8"><path d="M 0,1 l 8,0" stroke="#000000" stroke-width="2.5" /></pattern><marker id="id24" markerHeight="20" markerWidth="30" orient="auto" refX="0" refY="3"><path d=" M0,3 L8,8 L5,3 L8,0 L0,3" fill="black" /></marker><marker id="id25" markerHeight="30" markerWidth="30" orient="auto" refX="8" refY="3"><path d=" M0,0 L3,3 L0,8 L8,3 L0,0" fill="black" /></marker><marker id="id26" markerHeight="20" markerWidth="30" orient="auto" refX="0" refY="3"><path d=" M0,3 L8,8 L5,3 L8,0 L0,3" fill="black" /></marker><marker id="id27" markerHeight="10" markerWidth="10" orient="auto" refX="0" refY="5"><path d="M 0 0 L 10 5 L 0 10 z" fill="blue" stroke="black" /></marker><marker id="id28" markerHeight="10" markerWidth="10" orient="auto" refX="0" refY="5"><path d="M 0 0 L 10 5 L 0 10 z" fill="blue" stroke="black" /></marker><marker id="id29" markerHeight="10" markerWidth="10" orient="auto" refX="0" refY="5"><path d="M 0 0 L 10 5 L 0 10 z" fill="blue" stroke="black" /></marker><marker id="id30" markerHeight="10" markerWidth="10" orient="auto" refX="0" refY="5"><path d="M 0 0 L 10 5 L 0 10 z" fill="blue" stroke="black" /></marker></defs><line stroke="blue" stroke-linecap="square" stroke-width="2.5" x1="0.0" x2="750.0" y1="0.0" y2="0.0" /><line stroke="blue" stroke-linecap="square" stroke-width="2.5" x1="750.0" x2="750.0" y1="0.0" y2="305.3" /><line stroke="blue" stroke-linecap="square" stroke-width="2.5" x1="750.0" x2="0.0" y1="305.3" y2="305.3" /><line stroke="blue" stroke-dasharray="5 5" stroke-linecap="square" stroke-width="2.5" x1="0.0" x2="750.0" y1="147.70000000000002" y2="147.70000000000002" /><line stroke="blue" stroke-dasharray="5 5" stroke-linecap="square" stroke-width="2.5" x1="750.0" x2="0.0" y1="157.60000000000002" y2="157.60000000000002" /><line stroke="blue" stroke-linecap="square" stroke-width="2.5" x1="0.0" x2="0.0" y1="27.650000000000006" y2="0.0" /><line stroke="blue" stroke-linecap="square" stroke-width="2.5" x1="0.0" x2="0.0" y1="305.3" y2="277.65" /><line stroke="blue" stroke-dasharray="5 5" stroke-linecap="square" stroke-width="2.5" x1="0.0" x2="0.0" y1="27.650000000000006" y2="277.65" /><line stroke="blue" stroke-linecap="square" stroke-width="2.5" x1="0.0" x2="100.0" y1="27.650000000000006" y2="27.650000000000006" /><line stroke="blue" stroke-linecap="square" stroke-width="2.5" x1="100.0" x2="100.0" y1="27.650000000000006" y2="277.65" /><line stroke="blue" stroke-linecap="square" stroke-width="2.5" x1="100.0" x2="0.0" y1="277.65" y2="277.65" /><line stroke="blue" stroke-linecap="square" stroke-width="2.5" x1="0.0" x2="-100.0" y1="277.65" y2="277.65" /><line stroke="blue" stroke-linecap="square" stroke-width="2.5" x1="-100.0" x2="-100.0" y1="277.65" y2="27.649999999999977" /><line stroke="blue" stroke-linecap="square" stroke-width="2.5" x1="-100.0" x2="0.0" y1="27.649999999999977" y2="27.650000000000006" /><rect fill="url(#diagonalHatch)" height="12.0" stroke="white" stroke-width="1.0" width="100.0" x="0.0" y="15.650000000000006" /><rect fill="url(#diagonalHatch)" height="12.0" stroke="white" stroke-width="1.0" width="100.0" x="0.0" y="277.65" /><rect fill="url(#diagonalHatch)" height="250.0" stroke="white" stroke-width="1.0" width="12.0" x="100.0" y="27.650000000000006" /><polyline fill="none" marker-start="url(#id24)" points="0.0,0.0 -57.735026918962596,-100.0 -295.7350269189626,-100.0" stroke="black" stroke-width="2.5" /><text fill="black" font-family="sans-serif" font-size="28" x="-283.8350269189626" y="-118.0">UC 305 x 305 x 97</text><text fill="black" font-family="sans-serif" font-size="28" x="-307.6350269189626" y="-67.0"> </text><line stroke="#D8D8D8" stroke-linecap="square" stroke-opacity="0.7" stroke-width="2.5" x1="0.0" x2="0.0" y1="27.650000000000006" y2="-72.35" /><line stroke="#D8D8D8" stroke-linecap="square" stroke-opacity="0.7" stroke-width="2.5" x1="100.0" x2="100.0" y1="27.650000000000006" y2="-72.35" /><line marker-end="url(#id25)" marker-start="url(#id26)" stroke="black" stroke-linecap="square" stroke-width="2.5" x1="0.0" x2="100.0" y1="-72.35" y2="-72.35" /><text fill="black" font-family="sans-serif" font-size="28" x="10.0" y="-102.35">100.0</text><line stroke="black" stroke-linecap="square" stroke-opacity="1.0" stroke-width="2.5" x1="0.0" x2="0.0" y1="-62.349999999999994" y2="-82.35" /><line stroke="black" stroke-linecap="square" stroke-opacity="1.0" stroke-width="2.5" x1="100.0" x2="100.0" y1="-62.349999999999994" y2="-82.35" /><line marker-end="url(#id27)" stroke="black" stroke-linecap="square" stroke-width="2.5" x1="-100.0" x2="-100.0" y1="505.3" y2="455.3" /><text fill="black" font-family="sans-serif" font-size="40" x="-120.0" y="405.3">C</text><line marker-end="url(#id28)" stroke="black" stroke-linecap="square" stroke-width="2.5" x1="850.0" x2="850.0" y1="505.3" y2="455.3" /><text fill="black" font-family="sans-serif" font-size="40" x="830.0" y="405.3">C</text><line stroke="black" stroke-linecap="square" stroke-width="1.5" x1="-100.0" x2="850.0" y1="505.3" y2="505.3" /><line marker-end="url(#id29)" stroke="black" stroke-linecap="square" stroke-width="2.5" x1="1050.0" x2="1000.0" y1="-100.0" y2="-100.0" /><text fill="black" font-family="sans-serif" font-size="40" x="925.0" y="-80.0">B</text><line marker-end="url(#id30)" stroke="black" stroke-linecap="square" stroke-width="2.5" x1="1050.0" x2="1000.0" y1="405.3" y2="405.3" /><text fill="black" font-family="sans-serif" font-size="40" x="925.0" y="425.3">B</text><line stroke="black" stroke-linecap="square" stroke-width="1.5" x1="1050.0" x2="1050.0" y1="-100.0" y2="405.3" /><text fill="black" font-family="sans-serif" font-size="28" x="187.5" y="605.3">Top view (Sec A-A) </text><text fill="black" font-family="sans-serif" font-size="28" x="187.5" y="645.3">(All dimensions are in "mm")</text></svg>