<?xml version="1.0" encoding="utf-8" ?>
<svg baseProfile="full" height="100%" version="1.1" viewBox="-600 -400 1750 1107" width="100%" xmlns="http://www.w3.org/2000/svg" xmlns:ev="http://www.w3.org/2001/xml-events" xmlns:xlink="http://www.w3.org/1999/xlink"><defs><pattern height="8" id="diagonalHatch" patternTransform="rotate(45 2 2)" patternUnits="userSpaceOnUse" width="8"><path d="M 0,1 l 8,0" stroke="#000000" stroke-width="2.5" /></pattern><marker id="id6" markerHeight="20" markerWidth="30" orient="auto" refX="0" refY="3"><path d=" M0,3 L8,8 L5,3 L8,0 L0,3" fill="black" /></marker><marker id="id7" markerHeight="10" markerWidth="10" orient="auto" refX="0" refY="5"><path d="M 0 0 L 10 5 L 0 10 z" fill="blue" stroke="black" /></marker><marker id="id8" markerHeight="10" markerWidth="10" orient="auto" refX="0" refY="5"><path d="M 0 0 L 10 5 L 0 10 z" fill="blue" stroke="black" /></marker><marker id="id9" markerHeight="30" markerWidth="30" orient="auto" refX="8" refY="3"><path d=" M0,0 L3,3 L0,8 L8,3 L0,0" fill="black" /></marker><marker id="id10" markerHeight="20" markerWidth="30" orient="auto" refX="0" refY="3"><path d=" M0,3 L8,8 L5,3 L8,0 L0,3" fill="black" /></marker></defs><polyline fill="none" points="0.0,0.0 750.0,0.0 750.0,307.9 0.0,307.9 0.0,0.0" stroke="blue" stroke-width="2.5" /><line stroke="blue" stroke-linecap="square" stroke-width="2.5" x1="0.0" x2="750.0" y1="15.4" y2="15.4" /><line stroke="blue" stroke-linecap="square" stroke-width="2.5" x1="0.0" x2="750.0" y1="292.5" y2="292.5" /><line stroke="blue" stroke-linecap="square" stroke-width="2.5" x1="0.0" x2="200.0" y1="28.94999999999999" y2="28.94999999999999" /><line stroke="blue" stroke-linecap="square" stroke-width="2.5" x1="0.0" x2="-200.0" y1="278.95" y2="278.95" /><line stroke="blue" stroke-linecap="square" stroke-width="2.5" x1="0.0" x2="-200.0" y1="28.94999999999999" y2="28.94999999999999" /><line stroke="blue" stroke-linecap="square" stroke-width="2.5" x1="-200.0" x2="-200.0" y1="278.95" y2="28.94999999999999" /><line stroke="blue" stroke-linecap="square" stroke-width="2.5" x1="200.0" x2="200.0" y1="28.94999999999999" y2="278.95" /><line stroke="blue" stroke-linecap="square" stroke-width="2.5" x1="200.0" x2="0.0" y1="278.95" y2="278.95" /><rect fill="url(#diagonalHatch)" height="12.0" stroke="white" stroke-width="1.0" width="200.0" x="0.0" y="16.94999999999999" /><rect fill="url(#diagonalHatch)" height="12.0" stroke="white" stroke-width="1.0" width="200.0" x="0.0" y="278.95" /><rect fill="url(#diagonalHatch)" height="250.0" stroke="white" stroke-width="1.0" width="12.0" x="200.0" y="28.94999999999999" /><polyline fill="none" marker-start="url(#id6)" points="0.0,0.0 -173.20508075688775,-100.0 -411.20508075688775,-100.0" stroke="black" stroke-width="2.5" /><text fill="black" font-family="sans-serif" font-size="28" x="-399.3050807568878" y="-118.0">UC 305 x 305 x 97</text><text fill="black" font-family="sans-serif" font-size="28" x="-423.10508075688773" y="-67.0"> </text><line marker-end="url(#id7)" stroke="black" stroke-linecap="square" stroke-width="2.5" x1="-200.0" x2="-200.0" y1="-300.0" y2="-250.0" /><text fill="black" font-family="sans-serif" font-size="40" x="-220.0" y="-175.0">A</text><line marker-end="url(#id8)" stroke="black" stroke-linecap="square" stroke-width="2.5" x1="950.0" x2="950.0" y1="-300.0" y2="-250.0" /><text fill="black" font-family="sans-serif" font-size="40" x="930.0" y="-175.0">A</text><line stroke="black" stroke-linecap="square" stroke-width="1.5" x1="-200.0" x2="950.0" y1="-300.0" y2="-300.0" /><line stroke="#D8D8D8" stroke-linecap="square" stroke-opacity="0.7" stroke-width="2.5" x1="0.0" x2="0.0" y1="307.9" y2="407.9" /><line stroke="#D8D8D8" stroke-linecap="square" stroke-opacity="0.7" stroke-width="2.5" x1="750.0" x2="750.0" y1="307.9" y2="407.9" /><line marker-end="url(#id9)" marker-start="url(#id10)" stroke="black" stroke-linecap="square" stroke-width="2.5" x1="750.0" x2="0.0" y1="407.9" y2="407.9" /><text fill="black" font-family="sans-serif" font-size="28" x="327.0" y="354.9">2000.0</text><line stroke="black" stroke-linecap="square" stroke-opacity="1.0" stroke-width="2.5" x1="750.0" x2="750.0" y1="397.9" y2="417.9" /><line stroke="black" stroke-linecap="square" stroke-opacity="1.0" stroke-width="2.5" x1="0.0" x2="0.0" y1="397.9" y2="417.9" /><text fill="black" font-family="sans-serif" font-size="35" x="75.0" y="557.9">Front view (Sec C-C) </text><text fill="black" font-family="sans-serif" font-size="35" x="75.0" y="597.9">(All dimensions are in "mm")</text></svg>