<?xml version="1.0" encoding="utf-8" ?>
<svg baseProfile="full" height="100%" version="1.1" viewBox="-500 -300 1305 907" width="100%" xmlns="http://www.w3.org/2000/svg" xmlns:ev="http://www.w3.org/2001/xml-events" xmlns:xlink="http://www.w3.org/1999/xlink"><defs><marker id="id11" markerHeight="20" markerWidth="30" orient="auto" refX="0" refY="3"><path d=" M0,3 L8,8 L5,3 L8,0 L0,3" fill="black" /></marker><marker id="id12" markerHeight="30" markerWidth="30" orient="auto" refX="8" refY="3"><path d=" M0,0 L3,3 L0,8 L8,3 L0,0" fill="black" /></marker><marker id="id13" markerHeight="20" markerWidth="30" orient="auto" refX="0" refY="3"><path d=" M0,3 L8,8 L5,3 L8,0 L0,3" fill="black" /></marker></defs><polyline fill="none" points="0.0,0.0 305.3,0.0 305.3,15.4 0.0,15.4 0.0,0.0" stroke="blue" stroke-width="1" /><polyline fill="none" points="0.0,292.5 305.3,292.5 305.3,307.9 0.0,307.9 0.0,292.5" stroke="blue" stroke-width="1" /><line stroke="blue" stroke-linecap="square" stroke-width="1" x1="147.70000000000002" x2="147.70000000000002" y1="15.4" y2="292.49999999999994" /><line stroke="blue" stroke-linecap="square" stroke-width="1" x1="157.60000000000002" x2="157.60000000000002" y1="292.49999999999994" y2="15.4" /><line stroke="blue" stroke-linecap="square" stroke-width="1" x1="157.60000000000002" x2="169.60000000000002" y1="28.94999999999999" y2="28.94999999999999" /><line stroke="blue" stroke-linecap="square" stroke-width="1" x1="169.60000000000002" x2="169.60000000000002" y1="28.94999999999999" y2="278.95" /><line stroke="blue" stroke-linecap="square" stroke-width="1" x1="169.60000000000002" x2="157.60000000000002" y1="278.95" y2="278.95" /><polyline fill="red" points="157.60000000000002,28.94999999999999 169.60000000000002,28.94999999999999 157.60000000000002,16.94999999999999 157.60000000000002,28.94999999999999" stroke="black" stroke-width="2.5" /><polyline fill="red" points="157.60000000000002,278.95 169.60000000000002,278.95 157.60000000000002,290.95 157.60000000000002,278.95" stroke="black" stroke-width="2.5" /><polyline fill="none" marker-start="url(#id11)" points="0.0,0.0 -57.735026918962596,-100.0 -295.7350269189626,-100.0" stroke="black" stroke-width="2.5" /><text fill="black" font-family="sans-serif" font-size="28" x="-283.8350269189626" y="-118.0">UC 305 x 305 x 97</text><text fill="black" font-family="sans-serif" font-size="28" x="-307.6350269189626" y="-67.0"> </text><line stroke="#D8D8D8" stroke-linecap="square" stroke-opacity="0.7" stroke-width="2.5" x1="157.60000000000002" x2="57.60000000000002" y1="28.94999999999999" y2="28.94999999999999" /><line stroke="#D8D8D8" stroke-linecap="square" stroke-opacity="0.7" stroke-width="2.5" x1="157.60000000000002" x2="57.60000000000002" y1="278.95" y2="278.95" /><line marker-end="url(#id12)" marker-start="url(#id13)" stroke="black" stroke-linecap="square" stroke-width="1" x1="57.60000000000002" x2="57.60000000000002" y1="278.95" y2="28.94999999999999" /><text fill="black" font-family="sans-serif" font-size="28" x="-42.39999999999998" y="153.95">250.0</text><line stroke="black" stroke-linecap="square" stroke-opacity="1.0" stroke-width="1" x1="52.60000000000002" x2="62.60000000000002" y1="278.95" y2="278.95" /><line stroke="black" stroke-linecap="square" stroke-opacity="1.0" stroke-width="1" x1="52.60000000000002" x2="62.60000000000002" y1="28.94999999999999" y2="28.94999999999999" /><text fill="black" font-family="sans-serif" font-size="28" x="-28.0" y="407.9">Side view (Sec B-B) </text><text fill="black" font-family="sans-serif" font-size="28" x="-28.0" y="447.9">(All dimensions are in "mm")</text></svg>